# xmcd
#
# Track frame offsets:
#	187
#	23942
#	50685
#	75022
#	96792
#	113327
#	134482
#	161867
#	179297
#	204935
#
# Disc length: 3024 seconds
#
# Revision: 0
# Processed by: cddbd v1.5.2PL0 Copyright (c) Steve Scherf et al.
# Submitted via: EasyCDDAExtractor 16.0.9.1
#
DISCID=760bce0a
DTITLE=Various Artist - Cánh Bướm Vườn Xuân
DYEAR=1991
DGENRE=Pop
TTITLE0=Kiều Nga - Xuân Yêu Thương
TTITLE1=Lili Ann - Đón Xuân Này Nhớ Xuân Xưa
TTITLE2=Tuyết Nhung - Khúc Ca Mừng Xuân
TTITLE3=Duy Quang - Đầu Xuân Lính Chúc
TTITLE4=Kỳ Duyên - Cánh Bướm Vườn Xuân
TTITLE5=Thái Thảo - Xuân Miền Nam
TTITLE6=Hằng Nga - Đôi Ngã Chia Ly
TTITLE7=Như Mai - Mừng Nắng Xuân Về
TTITLE8=Thúy Vi - Đan Áo Mùa Xuân
TTITLE9=Lynda Trang Đài and Thụy Du - Thiên Duyên Tiền Định
EXTD=
EXTT0=
EXTT1=
EXTT2=
EXTT3=
EXTT4=
EXTT5=
EXTT6=
EXTT7=
EXTT8=
EXTT9=
PLAYORDER=
